<svg width="11" height="11" viewBox="0 0 11 11" fill="none" xmlns="http://www.w3.org/2000/svg">
<path d="M5.5 0C2.46272 0 0 2.52656 0 5.63996C0 8.13214 1.57634 10.2438 3.76161 10.9902C3.79226 10.9968 3.82354 11.0001 3.85491 11C4.05871 11 4.13728 10.8502 4.13728 10.7201C4.13728 10.585 4.13237 10.2315 4.12991 9.76005C3.94798 9.8027 3.76186 9.82493 3.575 9.82634C2.51674 9.82634 2.27612 9.0038 2.27612 9.0038C2.02567 8.35313 1.66473 8.17879 1.66473 8.17879C1.18594 7.84241 1.66228 7.83259 1.69911 7.83259H1.70156C2.25402 7.8817 2.54375 8.41696 2.54375 8.41696C2.81875 8.89821 3.18705 9.03326 3.51607 9.03326C3.73362 9.02891 3.94781 8.97871 4.14464 8.88594C4.19375 8.52254 4.33616 8.27455 4.4933 8.13214C3.27299 7.98973 1.98884 7.50603 1.98884 5.34531C1.98884 4.72902 2.20246 4.22567 2.55357 3.83281C2.4971 3.6904 2.30804 3.11585 2.60759 2.33996C2.64777 2.33034 2.68907 2.32621 2.73036 2.32768C2.92924 2.32768 3.37857 2.40379 4.12009 2.91942C5.02109 2.66733 5.974 2.66733 6.875 2.91942C7.61652 2.40379 8.06585 2.32768 8.26473 2.32768C8.30602 2.32621 8.34732 2.33034 8.3875 2.33996C8.68705 3.11585 8.49799 3.6904 8.44152 3.83281C8.79263 4.22813 9.00625 4.73147 9.00625 5.34531C9.00625 7.51094 7.71964 7.98728 6.49442 8.12723C6.69085 8.30156 6.86763 8.64531 6.86763 9.17076C6.86763 9.92455 6.86027 10.5335 6.86027 10.7176C6.86027 10.8502 6.93638 11 7.14018 11C7.17317 11.0001 7.20608 10.9969 7.23839 10.9902C9.42612 10.2438 11 8.12969 11 5.63996C11 2.52656 8.53728 0 5.5 0Z" fill="white"/>
</svg>
