<svg width="11" height="9" viewBox="0 0 11 9" fill="none" xmlns="http://www.w3.org/2000/svg">
<path d="M10.9293 1.82189C10.9293 0.854971 10.2181 0.0771386 9.33928 0.0771386C8.14889 0.021487 6.93487 0 5.69421 0H5.30744C4.06978 0 2.85362 0.0214871 1.66323 0.0773535C0.786558 0.0773535 0.0753355 0.859483 0.0753355 1.8264C0.0216177 2.59113 -0.00115856 3.35607 0.000130665 4.12101C-0.00201804 4.88595 0.022334 5.6516 0.0731868 6.41798C0.0731868 7.3849 0.784409 8.16917 1.66108 8.16917C2.91163 8.22719 4.19441 8.25297 5.49868 8.25082C6.80509 8.25512 8.08429 8.22791 9.33627 8.16917C10.2151 8.16917 10.9263 7.3849 10.9263 6.41798C10.9779 5.65089 11.0015 4.88595 10.9994 4.11886C11.0042 3.35392 10.9809 2.58826 10.9293 1.82189ZM4.44796 6.22889V2.00668L7.56358 4.11671L4.44796 6.22889Z" fill="white"/>
</svg>
